<svg xmlns="http://www.w3.org/2000/svg" xmlns:xlink="http://www.w3.org/1999/xlink" zoomAndPan="magnify" preserveAspectRatio="xMidYMid meet" version="1.0" viewBox="105.12 370.33 574.69 65.28"><defs><g/></defs><g fill="#ff00ff" fill-opacity="1"><g transform="translate(109.808608, 448.110578)"><g><path d="M 25 -25 L 25 -37.515625 L 0 -37.515625 L 0 -49.953125 L 25 -49.953125 L 25 -37.515625 L 49.953125 -37.515625 L 49.953125 -25 L 62.453125 -25 L 62.453125 -12.5 L 49.953125 -12.5 L 49.953125 -25 Z M 25 -49.953125 L 25 -62.453125 L 50.015625 -62.453125 L 50.015625 -49.953125 Z M 49.953125 -74.953125 L 62.453125 -74.953125 L 62.453125 -62.453125 L 49.953125 -62.453125 Z M 49.953125 -74.953125 "/></g></g></g><g fill="#00ffff" fill-opacity="1"><g transform="translate(105.123761, 448.110578)"><g><path d="M 25 -25 L 25 -37.515625 L 0 -37.515625 L 0 -49.953125 L 25 -49.953125 L 25 -37.515625 L 49.953125 -37.515625 L 49.953125 -25 L 62.453125 -25 L 62.453125 -12.5 L 49.953125 -12.5 L 49.953125 -25 Z M 25 -49.953125 L 25 -62.453125 L 50.015625 -62.453125 L 50.015625 -49.953125 Z M 49.953125 -74.953125 L 62.453125 -74.953125 L 62.453125 -62.453125 L 49.953125 -62.453125 Z M 49.953125 -74.953125 "/></g></g></g><g fill="#cc0000" fill-opacity="1"><g transform="translate(107.466184, 448.110578)"><g><path d="M 25 -25 L 25 -37.515625 L 0 -37.515625 L 0 -49.953125 L 25 -49.953125 L 25 -37.515625 L 49.953125 -37.515625 L 49.953125 -25 L 62.453125 -25 L 62.453125 -12.5 L 49.953125 -12.5 L 49.953125 -25 Z M 25 -49.953125 L 25 -62.453125 L 50.015625 -62.453125 L 50.015625 -49.953125 Z M 49.953125 -74.953125 L 62.453125 -74.953125 L 62.453125 -62.453125 L 49.953125 -62.453125 Z M 49.953125 -74.953125 "/></g></g></g><g fill="#ff00ff" fill-opacity="1"><g transform="translate(617.355867, 448.109758)"><g><path d="M 12.5 -25 L 12.5 -12.5 L 0 -12.5 L 0 -25 L 12.5 -25 L 12.5 -37.453125 L 37.515625 -37.453125 L 37.515625 -49.953125 L 62.453125 -49.953125 L 62.453125 -37.453125 L 37.515625 -37.453125 L 37.515625 -25 Z M 12.5 -49.953125 L 12.5 -62.453125 L 37.515625 -62.453125 L 37.515625 -49.953125 Z M 12.5 -62.453125 L 0 -62.453125 L 0 -74.953125 L 12.5 -74.953125 Z M 12.5 -62.453125 "/></g></g></g><g fill="#00ffff" fill-opacity="1"><g transform="translate(612.671293, 448.109758)"><g><path d="M 12.5 -25 L 12.5 -12.5 L 0 -12.5 L 0 -25 L 12.5 -25 L 12.5 -37.453125 L 37.515625 -37.453125 L 37.515625 -49.953125 L 62.453125 -49.953125 L 62.453125 -37.453125 L 37.515625 -37.453125 L 37.515625 -25 Z M 12.5 -49.953125 L 12.5 -62.453125 L 37.515625 -62.453125 L 37.515625 -49.953125 Z M 12.5 -62.453125 L 0 -62.453125 L 0 -74.953125 L 12.5 -74.953125 Z M 12.5 -62.453125 "/></g></g></g><g fill="#0d92f4" fill-opacity="1"><g transform="translate(615.01358, 448.109758)"><g><path d="M 12.5 -25 L 12.5 -12.5 L 0 -12.5 L 0 -25 L 12.5 -25 L 12.5 -37.453125 L 37.515625 -37.453125 L 37.515625 -49.953125 L 62.453125 -49.953125 L 62.453125 -37.453125 L 37.515625 -37.453125 L 37.515625 -25 Z M 12.5 -49.953125 L 12.5 -62.453125 L 37.515625 -62.453125 L 37.515625 -49.953125 Z M 12.5 -62.453125 L 0 -62.453125 L 0 -74.953125 L 12.5 -74.953125 Z M 12.5 -62.453125 "/></g></g></g><g fill="#ffffff" fill-opacity="1"><g transform="translate(195.772416, 436.614656)"><g><path d="M 58 -58 L 58 -24.859375 L 49.71875 -24.859375 L 49.71875 -16.578125 L 41.421875 -16.578125 L 41.421875 -8.28125 L 8.28125 -8.28125 L 8.28125 -16.578125 L 0 -16.578125 L 0 -58 L 8.28125 -58 L 8.28125 -66.28125 L 49.71875 -66.28125 L 49.71875 -58 Z M 41.421875 -58 L 16.578125 -58 L 16.578125 -16.578125 L 33.140625 -16.578125 L 33.140625 -24.859375 L 24.859375 -24.859375 L 24.859375 -33.140625 L 41.421875 -33.140625 Z M 49.71875 -8.28125 L 49.71875 -16.578125 L 58 -16.578125 L 58 -8.28125 Z M 49.71875 -8.28125 "/></g></g></g><g fill="#ffffff" fill-opacity="1"><g transform="translate(262.009002, 436.614656)"><g><path d="M 8.28125 -8.28125 L 8.28125 -16.578125 L 0 -16.578125 L 0 -66.28125 L 16.578125 -66.28125 L 16.578125 -16.578125 L 41.421875 -16.578125 L 41.421875 -66.28125 L 58 -66.28125 L 58 -16.578125 L 49.71875 -16.578125 L 49.71875 -8.28125 Z M 8.28125 -8.28125 "/></g></g></g><g fill="#ffffff" fill-opacity="1"><g transform="translate(328.245589, 436.614656)"><g><path d="M 24.859375 -8.28125 L 24.859375 -58 L 8.28125 -58 L 8.28125 -66.28125 L 58 -66.28125 L 58 -58 L 41.421875 -58 L 41.421875 -8.28125 Z M 24.859375 -8.28125 "/></g></g></g><g fill="#ffffff" fill-opacity="1"><g transform="translate(394.482175, 436.614656)"><g><path d="M 16.578125 -8.28125 L 16.578125 -16.578125 L 8.28125 -16.578125 L 8.28125 -24.859375 L 0 -24.859375 L 0 -49.71875 L 8.28125 -49.71875 L 8.28125 -58 L 16.578125 -58 L 16.578125 -66.28125 L 49.71875 -66.28125 L 49.71875 -58 L 58 -58 L 58 -49.71875 L 41.421875 -49.71875 L 41.421875 -58 L 24.859375 -58 L 24.859375 -49.71875 L 16.578125 -49.71875 L 16.578125 -24.859375 L 24.859375 -24.859375 L 24.859375 -16.578125 L 41.421875 -16.578125 L 41.421875 -24.859375 L 58 -24.859375 L 58 -16.578125 L 49.71875 -16.578125 L 49.71875 -8.28125 Z M 16.578125 -8.28125 "/></g></g></g><g fill="#ffffff" fill-opacity="1"><g transform="translate(460.718762, 436.614656)"><g><path d="M 8.28125 -8.28125 L 8.28125 -16.578125 L 0 -16.578125 L 0 -24.859375 L 16.578125 -24.859375 L 16.578125 -16.578125 L 41.421875 -16.578125 L 41.421875 -33.140625 L 8.28125 -33.140625 L 8.28125 -41.421875 L 0 -41.421875 L 0 -58 L 8.28125 -58 L 8.28125 -66.28125 L 49.71875 -66.28125 L 49.71875 -58 L 58 -58 L 58 -49.71875 L 41.421875 -49.71875 L 41.421875 -58 L 16.578125 -58 L 16.578125 -41.421875 L 49.71875 -41.421875 L 49.71875 -33.140625 L 58 -33.140625 L 58 -16.578125 L 49.71875 -16.578125 L 49.71875 -8.28125 Z M 8.28125 -8.28125 "/></g></g></g><g fill="#ffffff" fill-opacity="1"><g transform="translate(526.955348, 436.614656)"><g><path d="M 16.578125 -8.28125 L 16.578125 -16.578125 L 8.28125 -16.578125 L 8.28125 -24.859375 L 0 -24.859375 L 0 -49.71875 L 8.28125 -49.71875 L 8.28125 -58 L 16.578125 -58 L 16.578125 -66.28125 L 49.71875 -66.28125 L 49.71875 -58 L 58 -58 L 58 -49.71875 L 41.421875 -49.71875 L 41.421875 -58 L 24.859375 -58 L 24.859375 -49.71875 L 16.578125 -49.71875 L 16.578125 -24.859375 L 24.859375 -24.859375 L 24.859375 -16.578125 L 41.421875 -16.578125 L 41.421875 -24.859375 L 58 -24.859375 L 58 -16.578125 L 49.71875 -16.578125 L 49.71875 -8.28125 Z M 16.578125 -8.28125 "/></g></g></g></svg>