<?xml version="1.0" encoding="UTF-8"?>
<svg xmlns="http://www.w3.org/2000/svg" xmlns:xlink="http://www.w3.org/1999/xlink" width="1500px" height="1000px" viewBox="0 0 1500 1000" version="1.1">
<defs>
<clipPath id="clip1">
  <path d="M 821 472.214844 L 864.570312 472.214844 L 864.570312 509 L 821 509 Z M 821 472.214844 "/>
</clipPath>
<clipPath id="clip2">
  <path d="M 635.417969 518 L 645 518 L 645 526 L 635.417969 526 Z M 635.417969 518 "/>
</clipPath>
<clipPath id="clip3">
  <path d="M 680 518 L 691 518 L 691 527.777344 L 680 527.777344 Z M 680 518 "/>
</clipPath>
<clipPath id="clip4">
  <path d="M 854 518 L 864.582031 518 L 864.582031 527.777344 L 854 527.777344 Z M 854 518 "/>
</clipPath>
<clipPath id="clip5">
  <path d="M 731 518 L 742 518 L 742 527.777344 L 731 527.777344 Z M 731 518 "/>
</clipPath>
</defs>
<g id="surface1">
<path style=" stroke:none;fill-rule:nonzero;fill:rgb(100%,100%,100%);fill-opacity:1;" d="M 693.433594 472.214844 L 665.832031 508.226562 L 678.878906 508.226562 L 693.492188 488.722656 L 707.75 508.226562 L 720.875 508.226562 Z M 693.433594 472.214844 "/>
<path style=" stroke:none;fill-rule:nonzero;fill:rgb(100%,100%,100%);fill-opacity:1;" d="M 730.402344 472.214844 L 730.402344 508.28125 L 743.566406 508.28125 L 743.566406 488.722656 L 779.652344 508.28125 L 779.703125 472.222656 L 766.257812 472.222656 L 766.257812 491.394531 Z M 730.402344 472.214844 "/>
<path style=" stroke:none;fill-rule:nonzero;fill:rgb(100%,100%,100%);fill-opacity:1;" d="M 635.417969 472.222656 L 635.417969 480.25 L 650.625 480.25 L 650.636719 508.261719 L 663.796875 491.402344 L 663.796875 480.25 L 671.839844 480.253906 L 678.074219 472.230469 Z M 635.417969 472.222656 "/>
<path style=" stroke:none;fill-rule:nonzero;fill:rgb(100%,100%,100%);fill-opacity:1;" d="M 789.09375 472.214844 L 789.09375 480.238281 L 804.304688 480.238281 L 804.316406 508.171875 L 817.476562 491.394531 L 817.476562 480.238281 L 825.519531 480.246094 L 831.753906 472.21875 Z M 789.09375 472.214844 "/>
<g clip-path="url(#clip1)" clip-rule="nonzero">
<path style=" stroke:none;fill-rule:nonzero;fill:rgb(100%,100%,100%);fill-opacity:1;" d="M 864.570312 488.878906 C 864.40625 484.890625 862.261719 481.050781 858.472656 477.960938 C 855.4375 475.445312 851.519531 473.472656 847.058594 472.214844 L 841.503906 479.550781 C 841.75 479.621094 841.992188 479.695312 842.234375 479.773438 C 846.050781 480.988281 848.96875 483.179688 850.339844 485.847656 C 851.707031 488.515625 851.410156 491.4375 849.511719 493.960938 C 845.453125 499.214844 835.832031 501.335938 827.871094 498.730469 C 827.628906 498.652344 827.394531 498.570312 827.164062 498.484375 L 821.585938 505.84375 C 826.105469 507.402344 831.140625 508.164062 836.222656 508.066406 C 843.894531 507.957031 851.199219 505.863281 856.597656 502.230469 C 861.894531 498.699219 864.78125 493.871094 864.570312 488.878906 "/>
</g>
<path style=" stroke:none;fill-rule:nonzero;fill:rgb(100%,0%,0%);fill-opacity:1;" d="M 840.972656 518.730469 L 843.335938 518.730469 L 843.335938 525.308594 L 840.972656 525.308594 Z M 840.972656 518.730469 "/>
<path style=" stroke:none;fill-rule:nonzero;fill:rgb(100%,0%,0%);fill-opacity:1;" d="M 841 516.28125 L 843.335938 516.28125 L 843.335938 517.8125 L 841 517.8125 Z M 841 516.28125 "/>
<g clip-path="url(#clip2)" clip-rule="nonzero">
<path style=" stroke:none;fill-rule:nonzero;fill:rgb(100%,0%,0%);fill-opacity:1;" d="M 641.734375 520.628906 C 641.492188 520.097656 640.71875 519.753906 639.886719 519.808594 C 638.902344 519.808594 638.148438 520.117188 638.15625 520.5625 C 638.15625 520.941406 638.554688 521.175781 639.574219 521.324219 L 641.285156 521.5625 C 643.179688 521.832031 644.101562 522.40625 644.105469 523.34375 C 644.105469 524.589844 642.332031 525.445312 639.820312 525.445312 C 637.359375 525.445312 635.8125 524.730469 635.515625 523.519531 L 637.820312 523.375 C 638.042969 523.972656 638.902344 524.359375 639.8125 524.273438 C 640.9375 524.273438 641.683594 523.9375 641.683594 523.488281 C 641.683594 523.117188 641.25 522.871094 640.332031 522.738281 L 638.621094 522.503906 C 636.691406 522.242188 635.792969 521.609375 635.796875 520.652344 C 635.796875 519.433594 637.4375 518.65625 639.855469 518.65625 C 642.207031 518.65625 643.5625 519.367188 643.890625 520.480469 Z M 641.734375 520.628906 "/>
</g>
<path style=" stroke:none;fill-rule:nonzero;fill:rgb(100%,0%,0%);fill-opacity:1;" d="M 649.78125 525.3125 L 647.417969 525.3125 L 647.417969 516.546875 L 649.730469 516.546875 L 649.730469 519.855469 L 649.851562 519.855469 C 650.34375 519.0625 651.550781 518.574219 652.835938 518.652344 C 653.8125 518.617188 654.761719 518.875 655.429688 519.351562 C 656.09375 519.828125 656.410156 520.480469 656.289062 521.125 L 656.289062 525.3125 L 653.929688 525.3125 L 653.929688 521.359375 C 654 520.992188 653.820312 520.621094 653.441406 520.347656 C 653.058594 520.078125 652.515625 519.933594 651.957031 519.957031 C 651.359375 519.933594 650.777344 520.085938 650.359375 520.375 C 649.945312 520.664062 649.734375 521.058594 649.789062 521.453125 Z M 649.78125 525.3125 "/>
<path style=" stroke:none;fill-rule:nonzero;fill:rgb(100%,0%,0%);fill-opacity:1;" d="M 671.972656 518.734375 L 674.265625 518.734375 L 674.265625 519.832031 L 674.371094 519.832031 C 674.691406 519.105469 675.710938 518.617188 676.84375 518.640625 C 677.128906 518.640625 677.414062 518.65625 677.691406 518.683594 L 677.691406 520.109375 C 677.335938 520.050781 676.964844 520.019531 676.597656 520.015625 C 676.007812 519.992188 675.429688 520.132812 675 520.402344 C 674.574219 520.671875 674.332031 521.050781 674.335938 521.445312 L 674.335938 525.308594 L 671.976562 525.308594 Z M 671.972656 518.734375 "/>
<g clip-path="url(#clip3)" clip-rule="nonzero">
<path style=" stroke:none;fill-rule:nonzero;fill:rgb(100%,0%,0%);fill-opacity:1;" d="M 680.621094 518.738281 L 682.945312 518.738281 L 682.945312 519.824219 L 683.085938 519.824219 C 683.585938 519.078125 684.726562 518.609375 685.953125 518.652344 C 688.269531 518.652344 690.09375 519.839844 690.09375 522.035156 C 690.09375 524.199219 688.324219 525.429688 685.957031 525.429688 C 684.738281 525.46875 683.605469 525.011719 683.085938 524.277344 L 682.984375 524.277344 L 682.984375 527.78125 L 680.625 527.78125 Z M 685.296875 524.160156 C 686.859375 524.160156 687.683594 523.257812 687.683594 522.027344 C 687.683594 520.796875 686.871094 519.925781 685.296875 519.925781 C 683.769531 519.925781 682.9375 520.753906 682.9375 522.027344 C 682.9375 523.304688 683.785156 524.160156 685.296875 524.160156 "/>
</g>
<path style=" stroke:none;fill-rule:nonzero;fill:rgb(100%,0%,0%);fill-opacity:1;" d="M 693.046875 522.066406 C 692.917969 521.179688 693.363281 520.300781 694.273438 519.648438 C 695.179688 518.996094 696.460938 518.632812 697.796875 518.652344 C 700.265625 518.652344 702.378906 519.671875 702.378906 521.976562 L 702.378906 522.449219 L 695.390625 522.449219 C 695.324219 522.921875 695.566406 523.390625 696.058594 523.734375 C 696.550781 524.074219 697.238281 524.257812 697.949219 524.234375 C 698.859375 524.289062 699.71875 523.949219 700.070312 523.386719 L 702.277344 523.550781 C 701.699219 524.796875 699.863281 525.59375 697.917969 525.441406 C 696.566406 525.496094 695.25 525.152344 694.3125 524.503906 C 693.375 523.851562 692.910156 522.960938 693.042969 522.066406 M 700.109375 521.40625 C 700.136719 520.996094 699.90625 520.59375 699.472656 520.300781 C 699.039062 520.007812 698.441406 519.847656 697.824219 519.859375 C 696.519531 519.847656 695.4375 520.535156 695.394531 521.40625 Z M 700.109375 521.40625 "/>
<path style=" stroke:none;fill-rule:nonzero;fill:rgb(100%,0%,0%);fill-opacity:1;" d="M 705.730469 518.734375 L 708.023438 518.734375 L 708.023438 519.832031 L 708.128906 519.832031 C 708.453125 519.105469 709.46875 518.617188 710.601562 518.640625 C 710.886719 518.640625 711.171875 518.65625 711.453125 518.683594 L 711.453125 520.109375 C 711.09375 520.050781 710.722656 520.019531 710.355469 520.015625 C 709.765625 519.992188 709.1875 520.132812 708.757812 520.402344 C 708.332031 520.671875 708.089844 521.050781 708.09375 521.445312 L 708.09375 525.308594 L 705.734375 525.308594 Z M 705.730469 518.734375 "/>
<path style=" stroke:none;fill-rule:nonzero;fill:rgb(100%,0%,0%);fill-opacity:1;" d="M 719.890625 522.050781 C 719.769531 521.164062 720.222656 520.28125 721.140625 519.632812 C 722.058594 518.980469 723.347656 518.625 724.6875 518.652344 C 725.726562 518.582031 726.769531 518.789062 727.578125 519.234375 C 728.386719 519.679688 728.898438 520.320312 728.992188 521.015625 L 726.734375 521.015625 C 726.589844 520.355469 725.71875 519.875 724.71875 519.90625 C 723.261719 519.90625 722.289062 520.699219 722.289062 522.027344 C 722.289062 523.375 723.242188 524.183594 724.71875 524.183594 C 725.71875 524.214844 726.59375 523.734375 726.734375 523.070312 L 728.996094 523.070312 C 728.90625 523.769531 728.402344 524.414062 727.59375 524.859375 C 726.785156 525.308594 725.742188 525.519531 724.699219 525.449219 C 723.359375 525.480469 722.0625 525.128906 721.140625 524.480469 C 720.222656 523.828125 719.765625 522.945312 719.890625 522.058594 "/>
<path style=" stroke:none;fill-rule:nonzero;fill:rgb(100%,0%,0%);fill-opacity:1;" d="M 744.363281 516.546875 L 746.726562 516.546875 L 746.726562 519.824219 L 746.824219 519.824219 C 747.324219 519.078125 748.464844 518.613281 749.691406 518.652344 C 752.007812 518.652344 753.832031 519.84375 753.832031 522.035156 C 753.832031 524.203125 752.0625 525.429688 749.695312 525.429688 C 748.476562 525.46875 747.34375 525.011719 746.820312 524.277344 L 746.683594 524.277344 L 746.683594 525.316406 L 744.359375 525.316406 Z M 749.039062 524.160156 C 750.601562 524.160156 751.421875 523.261719 751.421875 522.03125 C 751.421875 520.800781 750.613281 519.929688 749.039062 519.929688 C 747.511719 519.929688 746.679688 520.753906 746.679688 522.03125 C 746.679688 523.304688 747.527344 524.160156 749.039062 524.160156 "/>
<path style=" stroke:none;fill-rule:nonzero;fill:rgb(100%,0%,0%);fill-opacity:1;" d="M 756.773438 522.066406 C 756.648438 521.179688 757.09375 520.300781 758 519.648438 C 758.90625 518.996094 760.191406 518.632812 761.523438 518.652344 C 763.992188 518.652344 766.105469 519.671875 766.105469 521.976562 L 766.105469 522.449219 L 759.117188 522.449219 C 759.050781 522.921875 759.292969 523.390625 759.785156 523.734375 C 760.277344 524.074219 760.96875 524.257812 761.675781 524.234375 C 762.585938 524.289062 763.445312 523.949219 763.800781 523.386719 L 766.007812 523.550781 C 765.425781 524.796875 763.59375 525.59375 761.644531 525.441406 C 760.292969 525.496094 758.976562 525.152344 758.039062 524.503906 C 757.101562 523.851562 756.636719 522.960938 756.773438 522.066406 M 763.839844 521.40625 C 763.867188 520.996094 763.632812 520.59375 763.199219 520.300781 C 762.765625 520.007812 762.171875 519.847656 761.550781 519.859375 C 760.246094 519.847656 759.164062 520.535156 759.125 521.40625 Z M 763.839844 521.40625 "/>
<path style=" stroke:none;fill-rule:nonzero;fill:rgb(100%,0%,0%);fill-opacity:1;" d="M 769.472656 518.734375 L 771.765625 518.734375 L 771.765625 519.832031 L 771.871094 519.832031 C 772.191406 519.105469 773.210938 518.617188 774.34375 518.640625 C 774.628906 518.640625 774.914062 518.65625 775.191406 518.683594 L 775.191406 520.109375 C 774.835938 520.050781 774.464844 520.019531 774.097656 520.015625 C 773.507812 519.992188 772.929688 520.132812 772.5 520.402344 C 772.074219 520.671875 771.832031 521.050781 771.835938 521.445312 L 771.835938 525.308594 L 769.476562 525.308594 Z M 769.472656 518.734375 "/>
<path style=" stroke:none;fill-rule:nonzero;fill:rgb(100%,0%,0%);fill-opacity:1;" d="M 789.832031 520.628906 C 789.589844 520.097656 788.816406 519.753906 787.984375 519.808594 C 786.996094 519.808594 786.246094 520.117188 786.253906 520.5625 C 786.253906 520.941406 786.652344 521.175781 787.671875 521.324219 L 789.382812 521.5625 C 791.277344 521.832031 792.195312 522.40625 792.203125 523.34375 C 792.203125 524.589844 790.425781 525.445312 787.917969 525.445312 C 785.457031 525.445312 783.910156 524.730469 783.613281 523.519531 L 785.917969 523.375 C 786.136719 523.972656 787 524.359375 787.910156 524.273438 C 789.035156 524.273438 789.777344 523.9375 789.777344 523.488281 C 789.777344 523.117188 789.347656 522.871094 788.425781 522.738281 L 786.714844 522.503906 C 784.789062 522.242188 783.886719 521.609375 783.894531 520.652344 C 783.894531 519.433594 785.53125 518.65625 787.949219 518.65625 C 790.300781 518.65625 791.660156 519.367188 791.984375 520.480469 Z M 789.832031 520.628906 "/>
<path style=" stroke:none;fill-rule:nonzero;fill:rgb(100%,0%,0%);fill-opacity:1;" d="M 795.089844 522.066406 C 794.960938 521.179688 795.40625 520.300781 796.316406 519.648438 C 797.222656 518.996094 798.503906 518.632812 799.835938 518.652344 C 802.308594 518.652344 804.421875 519.671875 804.421875 521.976562 L 804.421875 522.449219 L 797.433594 522.449219 C 797.363281 522.921875 797.609375 523.390625 798.097656 523.734375 C 798.589844 524.074219 799.28125 524.257812 799.992188 524.234375 C 800.902344 524.289062 801.757812 523.949219 802.113281 523.386719 L 804.320312 523.550781 C 803.742188 524.796875 801.90625 525.59375 799.960938 525.441406 C 798.609375 525.496094 797.292969 525.152344 796.355469 524.503906 C 795.417969 523.851562 794.953125 522.960938 795.085938 522.066406 M 802.152344 521.40625 C 802.179688 520.996094 801.949219 520.59375 801.515625 520.300781 C 801.082031 520.007812 800.484375 519.847656 799.867188 519.859375 C 798.5625 519.847656 797.480469 520.535156 797.4375 521.40625 Z M 802.152344 521.40625 "/>
<path style=" stroke:none;fill-rule:nonzero;fill:rgb(100%,0%,0%);fill-opacity:1;" d="M 807.351562 522.050781 C 807.226562 521.164062 807.679688 520.28125 808.597656 519.632812 C 809.515625 518.980469 810.804688 518.625 812.144531 518.652344 C 813.183594 518.582031 814.226562 518.789062 815.035156 519.234375 C 815.84375 519.679688 816.355469 520.320312 816.449219 521.015625 L 814.1875 521.015625 C 814.042969 520.355469 813.171875 519.875 812.171875 519.90625 C 810.714844 519.90625 809.742188 520.699219 809.742188 522.027344 C 809.742188 523.375 810.695312 524.183594 812.171875 524.183594 C 813.171875 524.214844 814.046875 523.734375 814.1875 523.070312 L 816.449219 523.070312 C 816.359375 523.769531 815.855469 524.414062 815.046875 524.859375 C 814.238281 525.308594 813.195312 525.519531 812.152344 525.449219 C 810.8125 525.480469 809.515625 525.128906 808.59375 524.480469 C 807.675781 523.828125 807.21875 522.945312 807.34375 522.058594 "/>
<path style=" stroke:none;fill-rule:nonzero;fill:rgb(100%,0%,0%);fill-opacity:1;" d="M 826.15625 518.730469 L 828.515625 518.730469 L 828.515625 525.304688 L 826.222656 525.304688 L 826.222656 524.136719 L 826.121094 524.136719 C 825.609375 524.933594 824.402344 525.4375 823.101562 525.390625 C 822.144531 525.40625 821.21875 525.140625 820.578125 524.664062 C 819.933594 524.1875 819.636719 523.550781 819.757812 522.914062 L 819.757812 518.726562 L 822.121094 518.726562 L 822.121094 522.675781 C 822.0625 523.027344 822.238281 523.382812 822.601562 523.640625 C 822.964844 523.902344 823.480469 524.046875 824.011719 524.035156 C 824.601562 524.042969 825.164062 523.882812 825.570312 523.597656 C 825.976562 523.3125 826.1875 522.929688 826.148438 522.539062 Z M 826.15625 518.730469 "/>
<path style=" stroke:none;fill-rule:nonzero;fill:rgb(100%,0%,0%);fill-opacity:1;" d="M 832.300781 518.734375 L 834.59375 518.734375 L 834.59375 519.832031 L 834.695312 519.832031 C 835.019531 519.105469 836.039062 518.617188 837.171875 518.640625 C 837.457031 518.640625 837.738281 518.65625 838.019531 518.683594 L 838.019531 520.109375 C 837.660156 520.050781 837.292969 520.019531 836.921875 520.015625 C 836.335938 519.992188 835.757812 520.132812 835.328125 520.402344 C 834.902344 520.671875 834.660156 521.050781 834.664062 521.445312 L 834.664062 525.308594 L 832.300781 525.308594 Z M 832.300781 518.734375 "/>
<path style=" stroke:none;fill-rule:nonzero;fill:rgb(100%,0%,0%);fill-opacity:1;" d="M 852.132812 519.933594 L 850.152344 519.933594 L 850.152344 523.332031 C 850.152344 523.957031 850.628906 524.09375 851.226562 524.09375 C 851.460938 524.09375 851.691406 524.074219 851.917969 524.035156 L 852.316406 525.246094 C 851.867188 525.34375 851.402344 525.394531 850.929688 525.402344 C 849.152344 525.433594 847.78125 524.828125 847.792969 523.589844 L 847.792969 519.933594 L 846.359375 519.933594 L 846.359375 518.734375 L 847.785156 518.734375 L 847.785156 517.160156 L 850.144531 517.160156 L 850.144531 518.734375 L 852.125 518.734375 Z M 852.132812 519.933594 "/>
<g clip-path="url(#clip4)" clip-rule="nonzero">
<path style=" stroke:none;fill-rule:nonzero;fill:rgb(100%,0%,0%);fill-opacity:1;" d="M 855.402344 527.617188 L 855.949219 526.414062 C 856.980469 526.613281 857.675781 526.558594 858.113281 525.8125 L 858.316406 525.457031 L 854.679688 518.742188 L 857.1875 518.742188 L 859.5 523.707031 L 859.601562 523.707031 L 861.921875 518.742188 L 864.4375 518.742188 L 860.417969 526.113281 C 859.996094 527.144531 858.550781 527.839844 856.949219 527.78125 C 856.421875 527.789062 855.902344 527.730469 855.40625 527.617188 "/>
</g>
<g clip-path="url(#clip5)" clip-rule="nonzero">
<path style=" stroke:none;fill-rule:nonzero;fill:rgb(100%,0%,0%);fill-opacity:1;" d="M 732.222656 527.617188 L 732.769531 526.414062 C 733.804688 526.613281 734.496094 526.558594 734.933594 525.8125 L 735.136719 525.457031 L 731.5 518.742188 L 734 518.742188 L 736.3125 523.707031 L 736.417969 523.707031 L 738.734375 518.742188 L 741.25 518.742188 L 737.230469 526.113281 C 736.808594 527.144531 735.363281 527.839844 733.757812 527.78125 C 733.234375 527.789062 732.714844 527.730469 732.21875 527.617188 "/>
</g>
<path style=" stroke:none;fill-rule:nonzero;fill:rgb(100%,0%,0%);fill-opacity:1;" d="M 662.832031 518.730469 L 659.238281 525.332031 L 661.75 525.332031 L 664.070312 520.363281 L 664.171875 520.363281 L 666.484375 525.332031 L 668.996094 525.332031 L 665.417969 518.730469 Z M 662.832031 518.730469 "/>
</g>
</svg>
